<svg xmlns="http://www.w3.org/2000/svg" width="265.13" height="310.4" viewBox="0 0 265.13 310.4">
  <path id="Caminho_2" data-name="Caminho 2" d="M1284.275,482.666s5.954,42.951-2.977,68.466-33.17,44.652-40.825,49.33-17.861,7.229-17.861,7.229-10.206-14.033-12.332-28.492a181.28,181.28,0,0,1-2.126-23.814s-48.479,28.067-60.812,76.546,5.954,86.327,5.954,86.327,27.557,50.734,69.317,65.064,110.27,5.571,143.737-24.665,47.2-72.719,39.974-122.049c-.8-5.426-1.781-10.611-2.969-15.821-9.034-39.609-27.224-62.851-27.224-62.851s-21.263-31.469-44.227-48.054-29.768-20.412-41.675-27.216S1284.275,482.666,1284.275,482.666Z" transform="translate(-1143.07 -479.642)" fill="#eceff1"/>
</svg>
